<?xml version="1.0" standalone="no"?>
<!DOCTYPE svg PUBLIC "-//W3C//DTD SVG 20010904//EN"
 "http://www.w3.org/TR/2001/REC-SVG-20010904/DTD/svg10.dtd">
<svg version="1.0" xmlns="http://www.w3.org/2000/svg"
 width="144.000000pt" height="191.000000pt" viewBox="0 0 144.000000 191.000000"
 preserveAspectRatio="xMidYMid meet">
<metadata>
Created by potrace 1.13, written by Peter Selinger 2001-2015
</metadata>
<g transform="translate(0.000000,191.000000) scale(0.100000,-0.100000)"
fill="#000000" stroke="none">
<path d="M577 1884 c-120 -29 -254 -114 -329 -207 -53 -67 -113 -195 -127
-271 -6 -33 -11 -142 -11 -243 l0 -183 -50 0 -50 0 0 -226 0 -227 73 69 c126
120 258 173 482 194 337 31 558 85 718 175 l47 27 0 182 c0 149 -4 197 -20
260 -46 182 -159 322 -323 400 -50 24 -116 49 -145 55 -71 15 -194 12 -265 -5z
m273 -64 c49 -10 136 -45 145 -59 3 -5 -16 -3 -41 5 -131 39 -296 23 -432 -42
-107 -51 -224 -168 -277 -277 -21 -42 -40 -76 -41 -74 -8 8 28 121 55 175 57
113 178 219 294 258 97 32 183 36 297 14z m5 -224 c109 -50 176 -140 195 -262
6 -38 9 -132 8 -209 l-3 -140 -335 0 -335 0 0 190 c0 184 1 192 26 246 48 102
132 172 236 199 56 14 149 3 208 -24z"/>
<path d="M1385 819 c-135 -138 -352 -249 -557 -283 -83 -14 -83 -14 -28 -15
86 -1 228 17 305 40 39 11 127 51 197 87 l128 67 0 73 c0 39 -1 72 -3 72 -2 0
-21 -18 -42 -41z"/>
<path d="M1380 607 c-147 -193 -399 -303 -745 -324 -92 -6 -103 -8 -65 -14
209 -32 406 -18 578 40 61 22 114 36 117 31 8 -12 -116 -124 -176 -158 -150
-85 -276 -114 -524 -118 -164 -3 -200 -7 -260 -26 l-70 -23 594 -3 c327 -1
596 -1 598 1 2 2 2 150 1 329 l-3 325 -45 -60z"/>
</g>
</svg>
